<?xml version="1.0" encoding="UTF-8"?>
<svg id="Layer_2" data-name="Layer 2" xmlns="http://www.w3.org/2000/svg" viewBox="0 0 81.16 81.15">
  <defs>
    <style>
      .cls-1 {
        fill: #db423f;
      }

      .cls-2 {
        fill: #de4341;
      }

      .cls-3 {
        fill: #e87f82;
      }

      .cls-4 {
        fill: #e24640;
      }

      .cls-5 {
        fill: #db4141;
      }

      .cls-6 {
        fill: #dd4244;
      }

      .cls-7 {
        fill: #db4142;
      }

      .cls-8 {
        fill: #db4140;
      }

      .cls-9 {
        fill: #f15f57;
      }

      .cls-10 {
        fill: #dc413f;
      }

      .cls-11 {
        fill: #df433d;
      }

      .cls-12 {
        fill: #dd4141;
      }

      .cls-13 {
        fill: #dd4240;
      }

      .cls-14 {
        fill: #dc4040;
      }

      .cls-15 {
        fill: #da4141;
      }

      .cls-16 {
        fill: #dc4042;
      }

      .cls-17 {
        fill: #dd4241;
      }

      .cls-18 {
        fill: #db413e;
      }

      .cls-19 {
        fill: #fff;
      }

      .cls-20 {
        fill: #dc4142;
      }

      .cls-21 {
        fill: #dc4041;
      }

      .cls-22 {
        fill: #e04242;
      }

      .cls-23 {
        fill: #dc4140;
      }

      .cls-24 {
        fill: #e77676;
      }

      .cls-25 {
        fill: #db403f;
      }

      .cls-26 {
        fill: #dd413f;
      }

      .cls-27 {
        fill: #dd4140;
      }

      .cls-28 {
        fill: #dd4040;
      }

      .cls-29 {
        fill: #dc4143;
      }

      .cls-30 {
        fill: #de4142;
      }

      .cls-31 {
        fill: #de4141;
      }

      .cls-32 {
        fill: #db4041;
      }

      .cls-33 {
        fill: #de423f;
      }

      .cls-34 {
        fill: #df413c;
      }

      .cls-35 {
        fill: #de4241;
      }

      .cls-36 {
        fill: #db413f;
      }

      .cls-37 {
        fill: #dc4240;
      }

      .cls-38 {
        fill: #e14441;
      }

      .cls-39 {
        fill: #dd4340;
      }
    </style>
  </defs>
  <g id="Layer_1-2" data-name="Layer 1">
    <g>
      <path class="cls-9" d="M76.01,20.87c.08.91.45,1.59,1.09,2.05,7.83,16.04,4.12,35.54-9.1,47.55-.61.35-1.17.83-1.7,1.42-8,6.8-18.59,10-29.19,9.13C17.18,79.38,1.4,63.23.08,43.29-.88,28.66,6.44,13.91,18.79,6.37l1.24-.76c19.76-11.63,44.96-4.54,55.98,15.25Z"/>
      <g>
        <path class="cls-24" d="M77.1,22.91c-.58.06-1.14-.38-1.11-1.05.02-.4.03-.74.01-.99.33.59.75,1.34,1.09,2.05Z"/>
        <path class="cls-3" d="M68,70.46c-.5.46-.9,1.25-1.7,1.42l.62-.89c.26-.36.55-.75,1.07-.54Z"/>
        <path class="cls-15" d="M47.74,64.03c-.69.66-1.15.17-1.71.05-1.89-.43-3.81-.72-5.48-1.73-1.16-.7-2.4-1.14-3.32-2.27l8.42,3.2c.68.26,1.14.65,2.09.75Z"/>
        <path class="cls-23" d="M25.72,69.91c-1.74-.54-3.55-.6-4.85-1.71s-2.7-1.99-3.43-3.63c3.06,2.12,5.92,4.1,9.42,5.24-.31.59-.72.22-1.14.09Z"/>
        <path class="cls-21" d="M37.92,66.67c-.35,3.43-2.7,7.57-6.17,8.49,3.02-2.52,4.12-5.45,6.17-8.49Z"/>
        <path class="cls-37" d="M28.71,73.96c.34-1.22,1.24-1.71,1.77-2.52l3.03-4.62c.31-.48.33-1.24,1.1-1.46l-1.77,4.87c-1.41,1.3-2.51,2.75-4.13,3.73Z"/>
        <path class="cls-14" d="M27.07,62.24c.85.38,3.38,2.28,2.51,2.54-.26.08-.49-.32-.66-.38-1.6-.57-3.08-1.47-4.45-2.48-.95-.7-2.07-.99-2.71-2.08l5.3,2.4Z"/>
        <path class="cls-25" d="M25.21,65.99c.68.5,1.69.56,2.31,1.46-3.08-.52-5.68-2.29-7.75-4.67-.27-.31-.76-.42-.62-.98l2.06,1.44c1.34.94,2.66,1.76,4,2.74Z"/>
        <path class="cls-7" d="M10.02,46.97c.8-2.59,2.48-5.76,4.77-7.07-1.09,2.8-2.71,5.01-4.77,7.07Z"/>
        <path class="cls-23" d="M44.77,66.1c-.66.6-1.39-.04-2.02-.13-2.1-.31-3.77-1-5.46-2.31-.41-.32-1.29-.35-1.12-1.27,1.64,1,3.29,1.62,5.11,2.1,1.01.76,2.06,1.18,3.48,1.61Z"/>
        <path class="cls-5" d="M16.17,59.67c-.48,1.49-1.14,2.68-2.33,3.57.11-.91.24-1.78.64-2.53l2.58-4.82c.36,1.44-.48,2.5-.89,3.78Z"/>
        <path class="cls-20" d="M43.53,59.77l4.07,1.64c-3.27.02-6.49-1.06-8.33-3.47,1.58.77,2.82,1.25,4.26,1.83Z"/>
        <path class="cls-29" d="M24.27,71.93c-1.66.31-3.02-.37-4.46-.79-1.17-.94-2.38-1.69-3.43-2.98.76-.13,1.33.45,1.85.96,1.9,1.18,3.83,1.86,6.04,2.8Z"/>
        <path class="cls-1" d="M24.78,47.49c-.46.87-.83.05-1.07-.07-1.3-.62-2.28-1.14-3.33-2.03-.72-.61-1.8-.96-2-2.1,1.64.74,3.08,1.55,4.37,2.61.63.52,1.05,1.14,2.03,1.58Z"/>
        <path class="cls-16" d="M18.44,53.01c-.86.19-1.39-.59-2.03-.97-.85-.51-1.48-.93-2.17-1.71-.45-.51-1.38-.7-1.57-1.69l3.86,2.29c.81.48,1.47,1.13,1.92,2.09Z"/>
        <path class="cls-32" d="M19.71,50.27l.51.15c.08.02.01.45-.11.46-.95.06-4.56-2.46-6.13-3.92.55-.43.84.14,1.19.28,1.74.73,3.23,1.56,4.55,3.04Z"/>
        <path class="cls-7" d="M55.16,72.58c-2.71.41-4.99.29-7.51-.22l3.8-.47c1.25-.15,2.69-.2,3.71.69Z"/>
        <path class="cls-18" d="M48.54,59c-1.02.27-1.98-.28-3.06-.43-1.73-.24-4.46-2.54-4.42-2.72.02-.11.03-.17.17-.2.26-.06.36.24.47.3,2.16,1.25,4.41,1.87,6.84,3.05Z"/>
        <path class="cls-10" d="M22.03,48.85c-.67.24-1.13-.56-1.65-.75-.76-.27-1.19-.41-1.75-.98-.7-.71-1.91-.99-2.19-2.22,1.41.41,2.51,1.24,3.67,2l1.92,1.95Z"/>
        <path class="cls-8" d="M40.1,72.39c-.31,1.46-2.45,4.14-3,3.3.76-.48,1.23-1.19,1.55-2.03l1.81-4.71c.12.05.27.05.37.05l-.73,3.38Z"/>
        <path class="cls-26" d="M42.63,75.37c-.39.39-.56.93-1.19.58,1.61-2.08,2.54-4.03,3.13-6.6.61,2.25-.27,4.36-1.94,6.02Z"/>
        <path class="cls-36" d="M55.09,69.9c-2.47.45-4.82.41-7.32-.29,2.44-.53,4.86-.73,7.32.29Z"/>
        <path class="cls-30" d="M32.91,56.19l-1.79,1.75c.23-1.43,1.08-2.45,1.95-3.5l1.89-2.28c.05.07.16.18.25.23l-2.3,3.8Z"/>
        <path class="cls-28" d="M36.29,55.69c-.43,1.14-2.4,3.45-3.38,3.84,1.18-2.49,2.86-4.31,4.38-6.1.06,1.09-.73,1.57-.99,2.26Z"/>
        <path class="cls-17" d="M11.99,61.77c-.18-1.12.03-2.09.42-3.08.55-1.42.77-2.89,1.66-4.17-.09,2.71-.94,5.03-2.08,7.25Z"/>
        <path class="cls-23" d="M28.03,56.52c-.13-.9.62-1.36,1.01-2.02.88-1.45,1.81-2.77,3.36-3.78-.06,1.17-.96,1.94-1.68,2.76l-2.69,3.04Z"/>
        <path class="cls-27" d="M56.11,60.78c.06,1.6-1.62,4.91-3.04,5.73.67-2.25,1.76-3.94,3.04-5.73Z"/>
        <path class="cls-31" d="M27.08,51.54c-.58.64-.84,1.57-1.98,1.84.84-1.75,2.04-3.46,3.83-4.64-.07,1.26-1.12,1.99-1.86,2.8Z"/>
        <path class="cls-12" d="M10.04,59.21c-.14-1.74.36-3.15.81-4.73.12-.43.04-.95.47-1.3.2,1.97-.12,4.53-1.28,6.02Z"/>
        <path class="cls-37" d="M11.17,40.05c-.9,1.71-1.68,3.27-3.11,4.5.28-1.73,1.3-3.1,2.42-4.33l.2-.38c.08-.16.63-.07.49.21Z"/>
        <path class="cls-2" d="M59.58,66.01c-.26.64-.85,1.15-1.27,1.51.04-1.48.79-2.44,1.54-3.63.25-.4.12-1.28,1.07-1.12l-1.33,3.24Z"/>
        <path class="cls-6" d="M8.96,51.42c.23,1.69-.51,3.65-1.28,5.16-.16-1.85.26-3.62,1.28-5.16Z"/>
        <path class="cls-39" d="M50.3,65.11c.2-2.13,1.18-3.67,2.06-5.3-.1,2.03-.83,3.84-2.06,5.3Z"/>
        <path class="cls-35" d="M52.78,75.33c-1.13.38-3.14-.06-4.93-.72,1.65-.26,3.1-.21,4.93.72Z"/>
        <path class="cls-13" d="M56.33,67.05c-.01-1.06.48-2,.97-3,.31-.65.42-1.35,1.07-1.81.09.81-.37,1.34-.6,2.02-.34,1.01-.52,2.02-1.44,2.79Z"/>
        <path class="cls-22" d="M3.39,35.23c.7.39,2.33,1.87,2.3,2.89-2.37-1.4-3.21-3.41-2.3-2.89Z"/>
        <path class="cls-33" d="M68.31,64.28c-1.58.5-3,.21-4.54-.37,1.61-.34,3.01-.23,4.54.37Z"/>
        <path class="cls-11" d="M3.76,47.12c1.66.63,3.93,2.57,3.45,2.78-.33.14-2.54-1.42-3.45-2.78Z"/>
        <path class="cls-38" d="M6.44,41.94l-.2.58c-.04.12-.57,0-.52-.12.67-1.69,1.02-3.21,1.91-3.11-.22,1.01-.56,1.81-1.18,2.66Z"/>
        <path class="cls-4" d="M66.65,66.32c-1.31.32-2.48.41-3.75-.06,1.21-.36,2.39-.62,3.75.06Z"/>
        <path class="cls-34" d="M4.44,40.21c-.85-.25-1.49-.99-1.65-2,.84.35,1.4.94,1.65,2Z"/>
      </g>
    </g>
    <g>
      <path class="cls-19" d="M14.1,46.77v-15.67h2.91v5.84l4.5-5.84h3.51l-5.49,6.99,5.89,8.69h-3.54l-4.88-7.43v7.43h-2.91Z"/>
      <path class="cls-19" d="M28.87,46.77v-2.69h3.31v-10.3h-3.31v-2.69h9.54v2.69h-3.31v10.3h3.31v2.69h-9.54Z"/>
      <path class="cls-19" d="M43.38,44.84c-1.25-1.4-1.88-3.37-1.88-5.91s.63-4.51,1.88-5.91,2.84-2.1,4.77-2.1c2.97,0,4.93,1.58,5.89,4.72l-2.75.85c-.27-1.06-.66-1.81-1.19-2.24s-1.17-.65-1.95-.65c-1.06,0-1.95.4-2.66,1.21s-1.07,2.18-1.07,4.12.36,3.31,1.07,4.12,1.6,1.21,2.66,1.21c.78,0,1.43-.22,1.95-.65s.92-1.18,1.19-2.24l2.75.85c-.96,3.15-2.92,4.72-5.89,4.72-1.92,0-3.51-.7-4.77-2.1Z"/>
      <path class="cls-19" d="M55.74,46.77v-15.67h2.91v5.84l4.5-5.84h3.51l-5.49,6.99,5.89,8.69h-3.54l-4.88-7.43v7.43h-2.91Z"/>
    </g>
  </g>
</svg>
